Coordinates
version=1
nRows=16
nColumns=36
inDegrees=yes

Units are S.I. units (second, meters, Newtons, ...)
If the header above contains a line with 'inDegrees', this indicates whether rotational values are in degrees (yes) or radians (no).

endheader
time	pelvis_tilt	pelvis_list	pelvis_rotation	pelvis_tx	pelvis_ty	pelvis_tz	hip_flexion_r	hip_adduction_r	hip_rotation_r	knee_angle_r	knee_angle_r_beta	ankle_angle_r	subtalar_angle_r	mtp_angle_r	hip_flexion_l	hip_adduction_l	hip_rotation_l	knee_angle_l	knee_angle_l_beta	ankle_angle_l	subtalar_angle_l	mtp_angle_l	lumbar_extension	lumbar_bending	lumbar_rotation	arm_flex_r	arm_add_r	arm_rot_r	elbow_flex_r	pro_sup_r	arm_flex_l	arm_add_l	arm_rot_l	elbow_flex_l	pro_sup_l
     45.48333330	      1.13335207	      0.05577062	     -1.24540564	      0.88386593	      0.81760076	      0.68573086	     23.38742731	     -1.11428967	     -2.17213259	     21.03031597	      0.36704826	      0.88658192	    -12.83057604	     -7.49999987	     -9.06643729	      2.15465316	     10.99971497	      5.40649727	      0.09436118	     13.74326023	     -6.51378774	     -7.49999987	     -7.07194872	      1.91990408	     -8.32366067	      1.05292034	    -12.11961988	      1.26508323	     12.50887287	     99.75140751	     14.23533941	    -16.08530334	      9.81295119	     16.82601178	     92.95203842
     45.50000000	      0.31640117	      0.28651729	     -0.56406010	      0.88188777	      0.81266019	      0.68808550	     24.11491808	     -1.43124059	     -1.58153699	     13.96324532	      0.24370461	      0.19109428	    -12.41765954	     -7.49999987	     -9.65779214	      2.24884658	     10.94805744	      5.41226613	      0.09446186	     15.26882601	     -5.59209043	     -7.49999987	     -6.17978575	      1.66839475	     -9.64705436	      0.38399137	    -11.84058466	     -1.19475873	     11.34035690	     99.00481996	     14.52145764	    -17.24124163	     10.01660310	     19.18343469	     92.62175961
     45.51666670	     -0.66904880	      0.54404698	      0.28503600	      0.88272683	      0.80772151	      0.68769938	     24.95632789	     -2.01765073	     -1.33214521	      7.39763656	      0.12911311	      0.54362570	    -10.81880002	     -7.49999987	    -10.03441476	      2.37689439	     11.29786456	      5.75474177	      0.10043919	     16.33244887	     -5.19430613	     -7.49999987	     -4.83161445	      1.39931770	    -11.08217064	     -0.58976340	    -11.98818006	     -2.22433835	     10.27908909	     98.13744667	     15.21186333	    -17.92002845	      9.67837506	     19.88586650	     91.78861148
     45.53333330	     -1.75252787	      0.91931824	      0.83170611	      0.88552522	      0.80115527	      0.68537514	     26.11533022	     -2.72214247	     -0.33144022	      2.21771674	      0.03870646	      1.17327495	     -9.71989452	     -7.49999987	    -10.25976968	      2.65866986	     11.33034038	      6.48031523	      0.11310284	     17.30507838	     -4.88132226	     -7.49999987	     -3.27899200	      0.92350783	    -11.81752327	     -1.78862592	    -11.97338641	    -10.27502824	      9.22263220	    101.61892369	     15.54078048	    -18.50791887	      8.27723434	     22.06500584	     94.36962944
     45.55000000	     -3.36507335	      1.41839297	      1.03686014	      0.88846100	      0.79304736	      0.68246393	     28.89874216	     -3.51884676	      0.25454522	      0.53567900	      0.00934936	      3.40526209	     -7.54451863	     -7.49999987	     -9.63543910	      3.14303878	     10.94713943	      7.91225849	      0.13809496	     18.24973080	     -4.52245917	     -7.49999987	     -0.97126496	      0.37826522	    -12.37286483	     -2.77071259	    -12.59692207	    -11.73298452	      7.98564516	    101.34456566	     15.55314871	    -18.91169158	      7.77955275	     23.57081145	     93.65963258
     45.56666670	     -4.86447540	      1.59727047	      1.26339562	      0.89057349	      0.78587439	      0.68089291	     31.40413891	     -3.92353348	      0.82005573	      0.32935573	      0.00574834	      5.37059902	     -6.08269679	     -7.49999987	     -8.85099544	      3.26247019	     10.56328686	     10.02630483	      0.17499203	     19.00104907	     -4.56140839	     -7.49999987	      1.26757951	      0.14477046	    -12.54445354	     -3.79139976	    -13.23924658	    -16.46183254	      7.01139253	    102.10295953	     15.54715183	    -18.81220641	      6.48896904	     24.75196987	     93.44804981
     45.58333330	     -5.72499181	      1.14947121	      1.71032414	      0.89144961	      0.78193807	      0.68212296	     32.28883038	     -3.64596043	      0.94208491	      0.32331658	      0.00564294	      6.10725425	     -5.50102757	     -7.49999987	     -8.60337421	      2.55128250	     10.06972678	     12.46841681	      0.21761493	     19.29034803	     -4.31091578	     -7.49999987	      2.77572427	      0.64717936	    -12.74808339	     -4.55136506	    -13.96770899	    -20.41281666	      6.49320140	    104.59507478	     15.69539388	    -18.51434520	      6.53257357	     25.16892040	     93.61990643
     45.60000000	     -5.84163372	      0.11542162	      2.41379107	      0.89081094	      0.78165533	      0.68523664	     31.51873884	     -2.71575371	      0.33390573	      0.48132955	      0.00840079	      5.39086368	     -5.69583772	     -7.49999987	     -9.03408470	      1.06393999	      9.83211039	     14.95589223	      0.26102956	     18.60234216	     -4.13558484	     -7.49999987	      3.34539204	      1.83429072	    -13.54824591	     -4.55743063	    -14.73847916	    -19.97002592	      6.00593818	    102.93752326	     15.59396009	    -18.26460982	      7.29509752	     25.35651678	     91.67378000
     45.61666670	     -5.27615682	     -1.07505609	      3.05097467	      0.88918062	      0.78340793	      0.68836354	     29.85763259	     -1.40434537	     -0.60014560	      1.30147904	      0.02271509	      3.49427065	     -6.37721850	     -7.49999987	     -9.92100763	     -0.63947850	      9.58317921	     17.53073965	      0.30596913	     17.02482641	     -3.94143232	     -7.49999987	      2.95824472	      3.21094309	    -14.26702671	     -4.22885284	    -15.35087714	    -19.86069893	      5.85114126	     99.84501342	     15.53394175	    -17.83089932	      7.08994742	     25.58315768	     89.19032420
     45.63333330	     -4.93129052	     -1.92865197	      3.20956779	      0.88821995	      0.78462369	      0.69114675	     29.32895407	     -0.18871431	     -1.57315595	      4.03360835	      0.07039975	      1.85695734	     -6.69061544	     -7.49999987	     -9.89006275	     -1.82750233	      8.87565160	     20.89132007	      0.36462232	     14.72235658	     -3.99833515	     -7.49999987	      2.66831619	      4.25492943	    -14.47119389	     -3.48144493	    -15.88637074	    -20.57391408	      5.77352221	    104.35342219	     15.32387483	    -17.36956748	      5.56865706	     25.90347236	     93.76310190
     45.65000000	     -4.48828801	     -2.72313664	      3.03852088	      0.89051189	      0.78644988	      0.69446759	     29.04946171	      1.06575417	     -2.35150574	      7.45782043	      0.13016352	      0.60811418	     -6.92148448	     -7.49999987	     -9.12433402	     -2.93417572	      7.44014780	     25.41431969	      0.44356356	     11.37392365	     -4.09489204	     -7.49999987	      2.16972111	      5.29115854	    -13.73935558	     -3.43478444	    -16.23088532	    -20.39674382	      6.92151991	    103.11844671	     15.28462167	    -16.77732663	      5.60599839	     26.35442119	     93.14227311
     45.66666670	     -3.62701880	     -3.51020603	      2.65888953	      0.89683198	      0.78954738	      0.69942686	     28.37710833	      2.42682131	     -2.79675837	     11.08272404	      0.19343002	      0.03602930	     -7.19546491	     -7.49999987	     -8.13040902	     -4.29330482	      5.09533964	     30.96958636	      0.54052125	      6.40763195	     -3.64585446	     -7.49999987	      1.22346321	      6.34638930	    -13.12080582	     -2.70915054	    -16.47495362	    -20.16189236	      7.09286104	    103.05244485	     14.95415698	    -16.27922292	      5.61763401	     26.11690019	     93.10566456
     45.68333330	     -2.81407324	     -4.49428051	      2.28692984	      0.90520992	      0.79264993	      0.70557563	     27.52670745	      4.00290014	     -3.20613742	     14.37533609	      0.25089695	      0.27653505	     -7.46536044	     -7.49999987	     -6.67904628	     -6.14787808	      2.69511708	     37.12496608	      0.64795289	      0.56041498	     -2.81751481	     -7.49999987	      0.49017961	      7.47083768	    -12.14728385	     -2.25807005	    -16.66141403	    -19.75343615	      7.15954781	    103.13568440	     14.34105875	    -15.59438775	      5.52741754	     25.76801684	     93.09986428
     45.70000000	     -2.47872540	     -5.61079113	      1.94573646	      0.91183578	      0.79592204	      0.71139796	     26.75063077	      5.66936585	     -3.59688544	     16.95099298	      0.29585064	      1.19532030	     -7.52531520	     -7.49999987	     -4.57369191	     -8.17845392	      0.92743011	     43.19188083	      0.75384053	     -4.63021367	     -2.04980031	     -7.49999987	      0.57534225	      8.73367150	    -10.96139864	     -2.26588408	    -16.87813638	    -18.90338971	      7.21815609	    103.37877985	     13.49833462	    -14.61687060	      5.21191295	     25.16690256	     93.10248107
     45.71666670	     -2.68962205	     -6.44207005	      1.67981805	      0.91472942	      0.80068798	      0.71618915	     25.91477256	      7.03898962	     -3.71784264	     18.36479591	      0.32052616	      2.22665162	     -7.45431924	     -7.49999987	     -1.89451538	     -9.80193580	     -0.07132964	     48.49676490	      0.84642822	     -8.77388377	     -1.37958994	     -7.49999987	      1.52234556	      9.46924298	    -10.18396939	     -2.51222516	    -17.13293283	    -13.49603315	      7.50636760	    103.51969605	     12.41195154	    -13.60604356	      4.09192469	     23.79121846	     92.03538276
     45.73333330	     -2.41266704	     -7.10642018	      1.63843062	      0.91512295	      0.80643336	      0.71931861	     24.03291479	      8.23155234	     -3.65446132	     18.73541172	      0.32699462	      3.34061763	     -7.67225181	     -7.49999987	      0.27935886	    -11.05357743	     -0.43888157	     53.04157688	      0.92575016	    -11.64581452	     -1.23987106	     -7.49999987	      1.66127368	     10.10314688	     -9.57895455	     -2.45005612	    -16.95889771	    -13.08904538	      7.79431467	    103.44030739	     11.32144440	    -13.06830492	      4.09267805	     23.35300469	     92.10974124
